<svg width="535" height="490" viewBox="0 0 535 490" fill="none" xmlns="http://www.w3.org/2000/svg">
<path d="M112.5 289.96L193.661 128.46M112.5 289.96L44.9648 238.487C29.2331 226.497 20 207.851 20 188.071V184.861C20 168.419 27.1749 152.796 39.6463 142.081C49.8755 133.292 62.9153 128.46 76.4014 128.46H193.661M112.5 289.96L160.5 320.96L193.742 342.429C203.421 348.68 211.348 357.293 216.777 367.457L222.871 378.867C228.646 389.68 229.237 402.521 224.48 413.82C221.551 420.776 216.745 426.78 210.599 431.161L178.659 453.926C174.895 456.609 170.886 458.931 166.685 460.861L157.563 465.053C143.876 471.341 128.124 471.341 114.437 465.053C104.41 460.446 96.0414 452.603 90.707 442.943C84.2139 431.185 82.3488 417.215 85.6698 404.2L99 351.96M408.5 289.96L487.706 237.281C504.443 226.149 514.5 207.381 514.5 187.281V186.185C514.5 168.946 506.795 152.608 493.492 141.643C483.154 133.121 470.173 128.46 456.775 128.46H327.339M408.5 289.96L327.339 128.46M408.5 289.96L332.981 340.578C321.966 347.961 313.682 358.758 309.404 371.31L307.776 376.084C303.451 388.772 304.537 402.68 310.78 414.543C314.215 421.069 319.086 426.732 325.025 431.105L356.417 454.217C359.798 456.707 363.401 458.883 367.178 460.718L374.223 464.14C388.327 470.99 404.756 471.166 419.004 464.62C428.454 460.278 436.433 453.167 441.862 444.296C449.568 431.703 451.716 416.381 447.699 402.174L433.5 351.96M327.339 128.46L278.37 31.0194C270.987 16.327 250.013 16.327 242.63 31.0195L193.661 128.46" stroke="#2D6A4F" stroke-width="40"/>
</svg>
